HIERARCHY
ROOT Hips
{
	OFFSET	0.00	0.00	0.00
	CHANNELS 6 Xposition Yposition Zposition Zrotation Xrotation Yrotation
	JOINT LeftUpLeg
	{
		OFFSET	 0.126116	-0.014019	-0.065224
		CHANNELS 3 Zrotation Xrotation Yrotation
		JOINT LeftLeg
		{
			OFFSET	 0.000000	 0.000000	 0.569914
			CHANNELS 3 Zrotation Xrotation Yrotation
			JOINT LeftFoot
			{
				OFFSET	 0.000000	 0.000000	 0.544423
				CHANNELS 3 Zrotation Xrotation Yrotation
				JOINT LeftToeBase
				{
					OFFSET	 0.000000	 0.000000	 0.207117
					CHANNELS 3 Zrotation Xrotation Yrotation
					End Site
					{
						OFFSET	 0.000000	 0.000000	 0.207117
					}
				}
			}
		}
	}
	JOINT RightUpLeg
	{
		OFFSET	-0.124023	-0.008373	-0.065224
		CHANNELS 3 Zrotation Xrotation Yrotation
		JOINT RightLeg
		{
			OFFSET	 0.000000	 0.000000	 0.570047
			CHANNELS 3 Zrotation Xrotation Yrotation
			JOINT RightFoot
			{
				OFFSET	 0.000000	 0.000000	 0.544354
				CHANNELS 3 Zrotation Xrotation Yrotation
				JOINT RightToeBase
				{
					OFFSET	 0.000000	 0.000000	 0.207540
					CHANNELS 3 Zrotation Xrotation Yrotation
					End Site
					{
						OFFSET	 0.000000	 0.000000	 0.207540
					}
				}
			}
		}
	}
	JOINT Spine
	{
		OFFSET	 0.000184	-0.007763	 0.117403
		CHANNELS 3 Zrotation Xrotation Yrotation
		JOINT Spine1
		{
			OFFSET	 0.000000	 0.000000	 0.137269
			CHANNELS 3 Zrotation Xrotation Yrotation
			JOINT Spine2
			{
				OFFSET	 0.000000	 0.000000	 0.156879
				CHANNELS 3 Zrotation Xrotation Yrotation
				JOINT LeftShoulder
				{
					OFFSET	 0.080501	-0.002496	 0.160144
					CHANNELS 3 Zrotation Xrotation Yrotation
					JOINT LeftArm
					{
						OFFSET	 0.000000	 0.000000	 0.164363
						CHANNELS 3 Zrotation Xrotation Yrotation
						JOINT LeftForeArm
						{
							OFFSET	 0.000000	 0.000000	 0.364576
							CHANNELS 3 Zrotation Xrotation Yrotation
							JOINT LeftHand
							{
								OFFSET	 0.000000	 0.000000	 0.360812
								CHANNELS 3 Zrotation Xrotation Yrotation
								JOINT LeftHandIndex1
								{
									OFFSET	 0.000000	 0.000000	 0.086006
									CHANNELS 3 Zrotation Xrotation Yrotation
									JOINT LeftHandIndex2
									{
										OFFSET	 0.000000	 0.000000	 0.047236
										CHANNELS 3 Zrotation Xrotation Yrotation
										JOINT LeftHandIndex3
										{
											OFFSET	-0.004284	-0.000551	 0.038166
											CHANNELS 3 Zrotation Xrotation Yrotation
											End Site
											{
												OFFSET	-0.004284	-0.000551	 0.038166
											}
										}
									}
								}
							}
						}
					}
				}
				JOINT Neck
				{
					OFFSET	 0.000000	 0.000000	 0.176489
					CHANNELS 3 Zrotation Xrotation Yrotation
					JOINT Head
					{
						OFFSET	 0.000000	-0.001747	 0.077940
						CHANNELS 3 Zrotation Xrotation Yrotation
						End Site
						{
							OFFSET	 0.000000	-0.001747	 0.077940
						}
					}
				}
				JOINT RightShoulder
				{
					OFFSET	-0.080363	 0.000306	 0.159706
					CHANNELS 3 Zrotation Xrotation Yrotation
					JOINT RightArm
					{
						OFFSET	 0.000000	 0.000000	 0.164196
						CHANNELS 3 Zrotation Xrotation Yrotation
						JOINT RightForeArm
						{
							OFFSET	 0.000000	 0.000000	 0.365611
							CHANNELS 3 Zrotation Xrotation Yrotation
							JOINT RightHand
							{
								OFFSET	 0.000000	 0.000000	 0.360648
								CHANNELS 3 Zrotation Xrotation Yrotation
								JOINT RightHandIndex1
								{
									OFFSET	 0.000000	 0.000000	 0.069977
									CHANNELS 3 Zrotation Xrotation Yrotation
									JOINT RightHandIndex2
									{
										OFFSET	 0.000000	 0.000000	 0.052305
										CHANNELS 3 Zrotation Xrotation Yrotation
										JOINT RightHandIndex3
										{
											OFFSET	 0.009002	-0.000782	 0.042196
											CHANNELS 3 Zrotation Xrotation Yrotation
											End Site
											{
												OFFSET	 0.009002	-0.000782	 0.042196
											}
										}
									}
								}
							}
						}
					}
				}
			}
		}
	}
}
MOTION
Frames:    5
Frame Time: 0.03333334
-0.039594	 0.304487	 0.969719	 3.910226	 33.584050	-8.549083	 87.572740	-88.005120	-92.870970	 10.589100	-78.654750	 10.795690	-5.531055	 84.898000	 7.785857	-2.385832	 28.452790	-0.000001	 104.115300	-77.357080	-79.878760	-25.807110	-80.667900	-20.410070	 52.541690	 80.873660	-41.472840	 2.384659	 28.388700	-0.000001	 0.893073	 16.036360	-0.161091	-1.523904	 23.487780	-0.082986	-7.529244	-1.412854	 4.777542	-99.084500	 68.192090	 157.044900	 9.062683	-3.978744	-31.208290	-3.089738	 13.252750	-43.458760	-23.692490	-18.862900	-18.036210	-2.027600	 6.559038	 9.033609	-5.188889	 0.308190	 3.541030	-5.234859	 0.342567	 0.430617	 0.150906	 16.477130	-5.481447	-6.933397	-25.539990	-4.148335	 97.375790	 64.620220	-159.345600	-3.676914	 2.656208	 49.098280	-6.581717	 0.568716	 27.992470	 7.881513	-17.718770	 13.968370	 1.803333	 3.979147	-15.098590	 4.898592	 3.004813	-9.310344	 5.224449	 0.395017	 2.014677
-0.039613	 0.303583	 0.978542	 3.732888	 32.650140	-8.032448	 37.756290	-87.568760	-142.590200	 9.324458	-77.574980	 9.517073	-7.196936	 84.606350	 9.468170	-2.385832	 28.452790	-0.000001	 95.862080	-78.124060	-88.106220	-24.090120	-79.552810	-18.651680	 50.515610	 80.755130	-39.307300	 2.384659	 28.388700	-0.000001	 1.291541	 16.245440	-0.379416	-1.076368	 24.257770	-0.692381	-7.938350	-2.614769	 4.495268	-98.619470	 68.636420	 157.817700	 8.748774	-2.153158	-32.360580	-2.746495	 13.087760	-43.865600	-24.356980	-19.294560	-18.738910	-2.027600	 6.559038	 9.033609	-5.188889	 0.308190	 3.541030	-5.234859	 0.342567	 0.430617	-0.383359	 12.228380	-4.348814	-7.436545	-21.297380	-4.309726	 97.128150	 64.244250	-160.318800	-4.194972	 2.286757	 49.806710	-6.115577	 0.831757	 28.429420	 7.753070	-17.714160	 15.201090	 1.803333	 3.979147	-15.098590	 4.898592	 3.004813	-9.310344	 5.224449	 0.395017	 2.014677
-0.039125	 0.302895	 0.989556	 3.452722	 31.558150	-7.421957	 12.863880	-85.760250	-167.405200	 8.160830	-76.173960	 8.332393	-8.793059	 84.217070	 11.003840	-2.385832	 28.452790	-0.000001	 84.708580	-78.641910	-99.243870	-22.366970	-78.084800	-16.870960	 48.043090	 80.576020	-36.697380	 2.384659	 28.388700	-0.000001	 1.547197	 16.467680	-0.546933	-0.644043	 24.847750	-1.187603	-8.231175	-3.883546	 4.098311	-97.905030	 69.574120	 158.653000	 8.873876	 0.336758	-33.676830	-2.380610	 12.849390	-44.178180	-25.099580	-19.800950	-19.816440	-2.027600	 6.559038	 9.033609	-5.188889	 0.308190	 3.541030	-5.234859	 0.342567	 0.430617	-0.799668	 7.183115	-3.237365	-7.755330	-16.327880	-4.354250	 96.820710	 64.217390	-161.123000	-4.814250	 2.612914	 50.175790	-6.027577	 0.903153	 29.073810	 7.484261	-17.549240	 16.168670	 1.803333	 3.979147	-15.098590	 4.898592	 3.004813	-9.310344	 5.224449	 0.395017	 2.014677
-0.037897	 0.302705	 1.002793	 3.078178	 30.238590	-6.677825	 3.092901	-83.222630	-177.131800	 7.256508	-74.454110	 7.395510	-9.965030	 83.760960	 12.023070	-2.385833	 28.452760	 0.000004	 70.514240	-78.617130	-113.430600	-20.866840	-76.237830	-15.290660	 45.485230	 80.346310	-33.951450	 2.384659	 28.388700	-0.000001	 1.653291	 16.693870	-0.696331	-0.236620	 25.267540	-1.606149	-8.384527	-5.146088	 3.639260	-96.794970	 71.284870	 159.516000	 9.577279	 3.817715	-35.448540	-1.997539	 12.521980	-44.344070	-25.967970	-20.403180	-21.133930	-2.027600	 6.559038	 9.033609	-5.188889	 0.308190	 3.541030	-5.234859	 0.342567	 0.430617	-1.097626	 1.416386	-2.364022	-7.846457	-10.660640	-4.104751	 96.311220	 64.910960	-161.858200	-5.646486	 4.073094	 50.460030	-6.273400	 0.796191	 30.011040	 7.265631	-17.591930	 16.943330	 1.803333	 3.979147	-15.098590	 4.898592	 3.004813	-9.310344	 5.224449	 0.395017	 2.014677
-0.035930	 0.303015	 1.018578	 2.666438	 28.662760	-5.809930	-1.512321	-80.109880	 178.294800	 6.754960	-72.325040	 6.836247	-10.587150	 83.193830	 12.337560	-2.385833	 28.452750	 0.000004	 54.725180	-77.683940	-129.191300	-19.432290	-73.941300	-13.750130	 42.615240	 80.060390	-30.836440	 2.384659	 28.388700	-0.000001	 1.609164	 16.956900	-0.843076	 0.145102	 25.530970	-2.016138	-8.356936	-6.104641	 3.220692	-95.066440	 74.037280	 160.273600	 10.769530	 8.307823	-38.065060	-1.593862	 12.098830	-44.343980	-26.949340	-21.131470	-22.464470	-2.027600	 6.559038	 9.033609	-5.188889	 0.308190	 3.541030	-5.234859	 0.342567	 0.430617	-1.351291	-4.897922	-2.167466	-7.660799	-4.289637	-3.234412	 95.419570	 66.624310	-162.759500	-6.483779	 6.757003	 51.174920	-6.700001	 0.574515	 31.118570	 7.269412	-18.247620	 17.627550	 1.803333	 3.979147	-15.098590	 4.898592	 3.004813	-9.310344	 5.224449	 0.395017	 2.014677
